<svg width="154" height="54" viewBox="0 0 154 54" fill="none" xmlns="http://www.w3.org/2000/svg">
<path d="M17.84 30.76V41H13.04V21.08H17.84V24.48C19.16 21.92 21.12 20.68 23.64 20.68H24.6V25.48H23.36C20.16 25.48 17.84 27.12 17.84 30.76ZM32.6697 30.08V41H27.8697V21.08H32.6697V24.56C33.9897 21.88 36.1097 20.68 38.7497 20.68C42.8297 20.68 45.3097 23.12 45.3097 27.8V41H40.4697V29.12C40.4697 26.28 39.4297 24.88 36.9097 24.88C34.5897 24.88 32.6697 26.6 32.6697 30.08ZM61.9528 37.16V41.2H58.4328C53.5128 41.2 51.3928 39.12 51.3928 34.04V25.16H48.4328V21.08H51.3928V15.32H56.2328V21.08H61.9528V25.16H56.2328V34.04C56.2328 35.96 56.9928 37.16 59.4328 37.16H61.9528ZM70.7666 30.08V41H65.9666V21.08H70.7666V24.56C72.0466 21.88 74.1266 20.68 76.6866 20.68C79.5666 20.68 81.5666 21.96 82.4066 24.48C83.8066 21.88 86.0866 20.68 88.8866 20.68C92.8066 20.68 95.1666 23.12 95.1666 27.8V41H90.3266V29.12C90.3266 26.28 89.4066 24.88 87.0466 24.88C84.8066 24.88 82.9666 26.6 82.9666 30.08V41H78.1266V29.12C78.1266 26.28 77.2066 24.88 74.8466 24.88C72.6066 24.88 70.7666 26.6 70.7666 30.08ZM116.887 35C116.287 39.04 113.127 41.4 108.327 41.4C103.007 41.4 99.4066 38.28 99.4066 32.44V29.64C99.4066 23.8 102.927 20.68 108.407 20.68C113.647 20.68 117.007 23.92 117.007 29.88V32.16H104.367C104.407 32.68 104.447 33.2 104.527 33.68C104.847 36 106.167 37.36 108.607 37.36C108.727 37.36 108.887 37.32 109.007 37.32C110.847 37.2 111.807 36.24 112.167 35H116.887ZM104.367 29.08L104.847 29.2H112.367C112.207 26.12 111.047 24.68 108.407 24.68C105.767 24.68 104.487 26.36 104.367 29.08Z" fill="#161B24"/>
<circle cx="138.5" cy="27.5" r="5.5" fill="#C73700"/>
</svg>
